<mxfile host="app.diagrams.net" modified="2023-06-08T05:56:49.676Z" agent="Mozilla/5.0 (Windows NT 10.0; Win64; x64) AppleWebKit/537.36 (KHTML, like Gecko) Chrome/112.0.0.0 Safari/537.36" etag="C0kjuHk50r-Wk45KjPrc" version="21.3.7" type="github">
  <diagram id="C5RBs43oDa-KdzZeNtuy" name="Page-1">
    <mxGraphModel dx="1562" dy="846" grid="1" gridSize="10" guides="1" tooltips="1" connect="0" arrows="1" fold="1" page="1" pageScale="1" pageWidth="827" pageHeight="1169" math="0" shadow="0">
      <root>
        <mxCell id="WIyWlLk6GJQsqaUBKTNV-0" />
        <mxCell id="WIyWlLk6GJQsqaUBKTNV-1" parent="WIyWlLk6GJQsqaUBKTNV-0" />
        <mxCell id="WIyWlLk6GJQsqaUBKTNV-2" value="" style="rounded=0;html=1;jettySize=auto;orthogonalLoop=1;fontSize=11;endArrow=block;endFill=0;endSize=8;strokeWidth=1;shadow=0;labelBackgroundColor=none;edgeStyle=orthogonalEdgeStyle;" parent="WIyWlLk6GJQsqaUBKTNV-1" source="WIyWlLk6GJQsqaUBKTNV-3" target="WIyWlLk6GJQsqaUBKTNV-6" edge="1">
          <mxGeometry relative="1" as="geometry" />
        </mxCell>
        <mxCell id="WIyWlLk6GJQsqaUBKTNV-3" value="main.py" style="rounded=1;whiteSpace=wrap;html=1;fontSize=12;glass=0;strokeWidth=1;shadow=0;" parent="WIyWlLk6GJQsqaUBKTNV-1" vertex="1">
          <mxGeometry x="140" y="50" width="120" height="40" as="geometry" />
        </mxCell>
        <mxCell id="6Ru11-lpTJLFxat0pvUQ-17" style="edgeStyle=orthogonalEdgeStyle;rounded=0;orthogonalLoop=1;jettySize=auto;html=1;" edge="1" parent="WIyWlLk6GJQsqaUBKTNV-1" source="WIyWlLk6GJQsqaUBKTNV-6" target="WIyWlLk6GJQsqaUBKTNV-7">
          <mxGeometry relative="1" as="geometry" />
        </mxCell>
        <mxCell id="WIyWlLk6GJQsqaUBKTNV-6" value="create instance of&amp;nbsp; MainApplication&lt;br&gt;class" style="rhombus;whiteSpace=wrap;html=1;shadow=0;fontFamily=Helvetica;fontSize=12;align=center;strokeWidth=1;spacing=6;spacingTop=-4;" parent="WIyWlLk6GJQsqaUBKTNV-1" vertex="1">
          <mxGeometry x="133.75" y="150" width="132.5" height="100" as="geometry" />
        </mxCell>
        <mxCell id="WIyWlLk6GJQsqaUBKTNV-7" value="switch_frame(BiFrame)" style="rounded=1;whiteSpace=wrap;html=1;fontSize=12;glass=0;strokeWidth=1;shadow=0;" parent="WIyWlLk6GJQsqaUBKTNV-1" vertex="1">
          <mxGeometry x="310" y="80" width="150" height="40" as="geometry" />
        </mxCell>
        <mxCell id="WIyWlLk6GJQsqaUBKTNV-10" value="call root.mainloop()" style="rhombus;whiteSpace=wrap;html=1;shadow=0;fontFamily=Helvetica;fontSize=12;align=center;strokeWidth=1;spacing=6;spacingTop=-4;" parent="WIyWlLk6GJQsqaUBKTNV-1" vertex="1">
          <mxGeometry x="145" y="310" width="110" height="100" as="geometry" />
        </mxCell>
        <mxCell id="6Ru11-lpTJLFxat0pvUQ-0" value="start" style="text;html=1;strokeColor=none;fillColor=none;align=center;verticalAlign=middle;whiteSpace=wrap;rounded=0;" vertex="1" parent="WIyWlLk6GJQsqaUBKTNV-1">
          <mxGeometry x="220" y="130" width="60" height="30" as="geometry" />
        </mxCell>
        <mxCell id="6Ru11-lpTJLFxat0pvUQ-15" value="END" style="rounded=1;whiteSpace=wrap;html=1;fontSize=12;glass=0;strokeWidth=1;shadow=0;" vertex="1" parent="WIyWlLk6GJQsqaUBKTNV-1">
          <mxGeometry x="145" y="460" width="120" height="40" as="geometry" />
        </mxCell>
        <mxCell id="6Ru11-lpTJLFxat0pvUQ-18" value="call" style="text;html=1;strokeColor=none;fillColor=none;align=center;verticalAlign=middle;whiteSpace=wrap;rounded=0;" vertex="1" parent="WIyWlLk6GJQsqaUBKTNV-1">
          <mxGeometry x="260" y="180" width="60" height="30" as="geometry" />
        </mxCell>
        <mxCell id="6Ru11-lpTJLFxat0pvUQ-28" style="edgeStyle=orthogonalEdgeStyle;rounded=0;orthogonalLoop=1;jettySize=auto;html=1;" edge="1" parent="WIyWlLk6GJQsqaUBKTNV-1" source="6Ru11-lpTJLFxat0pvUQ-20" target="6Ru11-lpTJLFxat0pvUQ-27">
          <mxGeometry relative="1" as="geometry">
            <Array as="points">
              <mxPoint x="580" y="240" />
            </Array>
          </mxGeometry>
        </mxCell>
        <mxCell id="6Ru11-lpTJLFxat0pvUQ-20" value="create BiFrame instance" style="rounded=1;whiteSpace=wrap;html=1;" vertex="1" parent="WIyWlLk6GJQsqaUBKTNV-1">
          <mxGeometry x="430" y="210" width="90" height="60" as="geometry" />
        </mxCell>
        <mxCell id="6Ru11-lpTJLFxat0pvUQ-22" value="" style="endArrow=classic;html=1;rounded=0;entryX=-0.036;entryY=0.5;entryDx=0;entryDy=0;entryPerimeter=0;" edge="1" parent="WIyWlLk6GJQsqaUBKTNV-1" target="6Ru11-lpTJLFxat0pvUQ-20">
          <mxGeometry width="50" height="50" relative="1" as="geometry">
            <mxPoint x="270" y="200" as="sourcePoint" />
            <mxPoint x="320" y="270" as="targetPoint" />
            <Array as="points">
              <mxPoint x="300" y="200" />
              <mxPoint x="300" y="240" />
            </Array>
          </mxGeometry>
        </mxCell>
        <mxCell id="6Ru11-lpTJLFxat0pvUQ-23" value="" style="endArrow=classic;html=1;rounded=0;exitX=0.996;exitY=0.487;exitDx=0;exitDy=0;exitPerimeter=0;entryX=-0.004;entryY=0.488;entryDx=0;entryDy=0;entryPerimeter=0;" edge="1" parent="WIyWlLk6GJQsqaUBKTNV-1" source="6Ru11-lpTJLFxat0pvUQ-20" target="6Ru11-lpTJLFxat0pvUQ-26">
          <mxGeometry width="50" height="50" relative="1" as="geometry">
            <mxPoint x="440" y="240" as="sourcePoint" />
            <mxPoint x="500" y="240" as="targetPoint" />
          </mxGeometry>
        </mxCell>
        <mxCell id="6Ru11-lpTJLFxat0pvUQ-24" value="" style="endArrow=classic;html=1;rounded=0;exitX=0.5;exitY=0.996;exitDx=0;exitDy=0;exitPerimeter=0;entryX=0.458;entryY=-0.02;entryDx=0;entryDy=0;entryPerimeter=0;" edge="1" parent="WIyWlLk6GJQsqaUBKTNV-1" source="WIyWlLk6GJQsqaUBKTNV-10" target="6Ru11-lpTJLFxat0pvUQ-15">
          <mxGeometry width="50" height="50" relative="1" as="geometry">
            <mxPoint x="200" y="450" as="sourcePoint" />
            <mxPoint x="250" y="400" as="targetPoint" />
          </mxGeometry>
        </mxCell>
        <mxCell id="6Ru11-lpTJLFxat0pvUQ-25" value="" style="endArrow=classic;html=1;rounded=0;exitX=0.494;exitY=0.996;exitDx=0;exitDy=0;exitPerimeter=0;" edge="1" parent="WIyWlLk6GJQsqaUBKTNV-1" source="WIyWlLk6GJQsqaUBKTNV-6">
          <mxGeometry width="50" height="50" relative="1" as="geometry">
            <mxPoint x="200" y="450" as="sourcePoint" />
            <mxPoint x="199" y="310" as="targetPoint" />
            <Array as="points" />
          </mxGeometry>
        </mxCell>
        <mxCell id="6Ru11-lpTJLFxat0pvUQ-26" value="Create username_Label, username_Entry, job_role_Label, job_role_Entry, upload_resume_label, upload_resume_button, etc." style="rounded=1;whiteSpace=wrap;html=1;" vertex="1" parent="WIyWlLk6GJQsqaUBKTNV-1">
          <mxGeometry x="570" y="70" width="200" height="100" as="geometry" />
        </mxCell>
        <mxCell id="6Ru11-lpTJLFxat0pvUQ-27" value="Call start_realtime_analysis when start button is pressed " style="rounded=1;whiteSpace=wrap;html=1;" vertex="1" parent="WIyWlLk6GJQsqaUBKTNV-1">
          <mxGeometry x="580" y="220" width="160" height="60" as="geometry" />
        </mxCell>
        <mxCell id="6Ru11-lpTJLFxat0pvUQ-32" value="" style="edgeStyle=orthogonalEdgeStyle;rounded=0;orthogonalLoop=1;jettySize=auto;html=1;" edge="1" parent="WIyWlLk6GJQsqaUBKTNV-1" source="6Ru11-lpTJLFxat0pvUQ-29" target="6Ru11-lpTJLFxat0pvUQ-31">
          <mxGeometry relative="1" as="geometry" />
        </mxCell>
        <mxCell id="6Ru11-lpTJLFxat0pvUQ-56" value="" style="edgeStyle=orthogonalEdgeStyle;rounded=0;orthogonalLoop=1;jettySize=auto;html=1;" edge="1" parent="WIyWlLk6GJQsqaUBKTNV-1" source="6Ru11-lpTJLFxat0pvUQ-29" target="6Ru11-lpTJLFxat0pvUQ-55">
          <mxGeometry relative="1" as="geometry" />
        </mxCell>
        <mxCell id="6Ru11-lpTJLFxat0pvUQ-29" value="create realtime analysis frame&amp;nbsp;" style="rounded=1;whiteSpace=wrap;html=1;" vertex="1" parent="WIyWlLk6GJQsqaUBKTNV-1">
          <mxGeometry x="414" y="360" width="120" height="60" as="geometry" />
        </mxCell>
        <mxCell id="6Ru11-lpTJLFxat0pvUQ-30" value="" style="endArrow=classic;html=1;rounded=0;entryX=0;entryY=0.5;entryDx=0;entryDy=0;entryPerimeter=0;" edge="1" parent="WIyWlLk6GJQsqaUBKTNV-1" target="6Ru11-lpTJLFxat0pvUQ-29">
          <mxGeometry width="50" height="50" relative="1" as="geometry">
            <mxPoint x="300" y="240" as="sourcePoint" />
            <mxPoint x="480" y="410" as="targetPoint" />
          </mxGeometry>
        </mxCell>
        <mxCell id="6Ru11-lpTJLFxat0pvUQ-44" value="" style="edgeStyle=orthogonalEdgeStyle;rounded=0;orthogonalLoop=1;jettySize=auto;html=1;" edge="1" parent="WIyWlLk6GJQsqaUBKTNV-1" source="6Ru11-lpTJLFxat0pvUQ-31" target="6Ru11-lpTJLFxat0pvUQ-33">
          <mxGeometry relative="1" as="geometry" />
        </mxCell>
        <mxCell id="6Ru11-lpTJLFxat0pvUQ-31" value="Initialization (&lt;code style=&quot;border: 0px solid rgb(217, 217, 227); box-sizing: border-box; --tw-border-spacing-x:0; --tw-border-spacing-y:0; --tw-translate-x:0; --tw-translate-y:0; --tw-rotate:0; --tw-skew-x:0; --tw-skew-y:0; --tw-scale-x:1; --tw-scale-y:1; --tw-pan-x: ; --tw-pan-y: ; --tw-pinch-zoom: ; --tw-scroll-snap-strictness:proximity; --tw-gradient-from-position: ; --tw-gradient-via-position: ; --tw-gradient-to-position: ; --tw-ordinal: ; --tw-slashed-zero: ; --tw-numeric-figure: ; --tw-numeric-spacing: ; --tw-numeric-fraction: ; --tw-ring-inset: ; --tw-ring-offset-width:0px; --tw-ring-offset-color:#fff; --tw-ring-color:rgba(69,89,164,0.5); --tw-ring-offset-shadow:0 0 transparent; --tw-ring-shadow:0 0 transparent; --tw-shadow:0 0 transparent; --tw-shadow-colored:0 0 transparent; --tw-blur: ; --tw-brightness: ; --tw-contrast: ; --tw-grayscale: ; --tw-hue-rotate: ; --tw-invert: ; --tw-saturate: ; --tw-sepia: ; --tw-drop-shadow: ; --tw-backdrop-blur: ; --tw-backdrop-brightness: ; --tw-backdrop-contrast: ; --tw-backdrop-grayscale: ; --tw-backdrop-hue-rotate: ; --tw-backdrop-invert: ; --tw-backdrop-opacity: ; --tw-backdrop-saturate: ; --tw-backdrop-sepia: ; font-size: 0.875em; color: var(--tw-prose-code); font-family: &amp;quot;Söhne Mono&amp;quot;, Monaco, &amp;quot;Andale Mono&amp;quot;, &amp;quot;Ubuntu Mono&amp;quot;, monospace !important;&quot;&gt;__init__&lt;/code&gt;)" style="whiteSpace=wrap;html=1;rounded=1;" vertex="1" parent="WIyWlLk6GJQsqaUBKTNV-1">
          <mxGeometry x="617.5" y="360" width="105" height="60" as="geometry" />
        </mxCell>
        <mxCell id="6Ru11-lpTJLFxat0pvUQ-45" value="" style="edgeStyle=orthogonalEdgeStyle;rounded=0;orthogonalLoop=1;jettySize=auto;html=1;" edge="1" parent="WIyWlLk6GJQsqaUBKTNV-1" source="6Ru11-lpTJLFxat0pvUQ-33" target="6Ru11-lpTJLFxat0pvUQ-34">
          <mxGeometry relative="1" as="geometry" />
        </mxCell>
        <mxCell id="6Ru11-lpTJLFxat0pvUQ-33" value="Call to create_ui_components to initialize the user interface. " style="rounded=1;whiteSpace=wrap;html=1;" vertex="1" parent="WIyWlLk6GJQsqaUBKTNV-1">
          <mxGeometry x="785" y="360" width="110" height="60" as="geometry" />
        </mxCell>
        <mxCell id="6Ru11-lpTJLFxat0pvUQ-46" value="" style="edgeStyle=orthogonalEdgeStyle;rounded=0;orthogonalLoop=1;jettySize=auto;html=1;" edge="1" parent="WIyWlLk6GJQsqaUBKTNV-1" source="6Ru11-lpTJLFxat0pvUQ-34" target="6Ru11-lpTJLFxat0pvUQ-36">
          <mxGeometry relative="1" as="geometry" />
        </mxCell>
        <mxCell id="6Ru11-lpTJLFxat0pvUQ-34" value="Creation of the audio_queue." style="rounded=1;whiteSpace=wrap;html=1;" vertex="1" parent="WIyWlLk6GJQsqaUBKTNV-1">
          <mxGeometry x="780" y="440" width="120" height="60" as="geometry" />
        </mxCell>
        <mxCell id="6Ru11-lpTJLFxat0pvUQ-48" value="" style="edgeStyle=orthogonalEdgeStyle;rounded=0;orthogonalLoop=1;jettySize=auto;html=1;" edge="1" parent="WIyWlLk6GJQsqaUBKTNV-1" source="6Ru11-lpTJLFxat0pvUQ-35" target="6Ru11-lpTJLFxat0pvUQ-37">
          <mxGeometry relative="1" as="geometry" />
        </mxCell>
        <mxCell id="6Ru11-lpTJLFxat0pvUQ-35" value="A short pause (using time.sleep(2))." style="rounded=1;whiteSpace=wrap;html=1;" vertex="1" parent="WIyWlLk6GJQsqaUBKTNV-1">
          <mxGeometry x="770" y="630" width="140" height="60" as="geometry" />
        </mxCell>
        <mxCell id="6Ru11-lpTJLFxat0pvUQ-47" value="" style="edgeStyle=orthogonalEdgeStyle;rounded=0;orthogonalLoop=1;jettySize=auto;html=1;" edge="1" parent="WIyWlLk6GJQsqaUBKTNV-1" source="6Ru11-lpTJLFxat0pvUQ-36" target="6Ru11-lpTJLFxat0pvUQ-35">
          <mxGeometry relative="1" as="geometry" />
        </mxCell>
        <mxCell id="6Ru11-lpTJLFxat0pvUQ-36" value="Instantiation of the user_audio_recorder and speaker_audio_recorder, and start of recording into the audio_queue." style="rounded=1;whiteSpace=wrap;html=1;" vertex="1" parent="WIyWlLk6GJQsqaUBKTNV-1">
          <mxGeometry x="760" y="520" width="160" height="74.5" as="geometry" />
        </mxCell>
        <mxCell id="6Ru11-lpTJLFxat0pvUQ-49" value="" style="edgeStyle=orthogonalEdgeStyle;rounded=0;orthogonalLoop=1;jettySize=auto;html=1;" edge="1" parent="WIyWlLk6GJQsqaUBKTNV-1" source="6Ru11-lpTJLFxat0pvUQ-37" target="6Ru11-lpTJLFxat0pvUQ-38">
          <mxGeometry relative="1" as="geometry" />
        </mxCell>
        <mxCell id="6Ru11-lpTJLFxat0pvUQ-37" value="Model selection (via TranscriberModels.get_model)." style="rounded=1;whiteSpace=wrap;html=1;" vertex="1" parent="WIyWlLk6GJQsqaUBKTNV-1">
          <mxGeometry x="760" y="710" width="160" height="60" as="geometry" />
        </mxCell>
        <mxCell id="6Ru11-lpTJLFxat0pvUQ-51" value="" style="edgeStyle=orthogonalEdgeStyle;rounded=0;orthogonalLoop=1;jettySize=auto;html=1;" edge="1" parent="WIyWlLk6GJQsqaUBKTNV-1" source="6Ru11-lpTJLFxat0pvUQ-38" target="6Ru11-lpTJLFxat0pvUQ-39">
          <mxGeometry relative="1" as="geometry" />
        </mxCell>
        <mxCell id="6Ru11-lpTJLFxat0pvUQ-38" value="Initialization of transcriber with transcribe thread. " style="rounded=1;whiteSpace=wrap;html=1;" vertex="1" parent="WIyWlLk6GJQsqaUBKTNV-1">
          <mxGeometry x="780" y="790" width="120" height="60" as="geometry" />
        </mxCell>
        <mxCell id="6Ru11-lpTJLFxat0pvUQ-52" value="" style="edgeStyle=orthogonalEdgeStyle;rounded=0;orthogonalLoop=1;jettySize=auto;html=1;" edge="1" parent="WIyWlLk6GJQsqaUBKTNV-1" source="6Ru11-lpTJLFxat0pvUQ-39" target="6Ru11-lpTJLFxat0pvUQ-40">
          <mxGeometry relative="1" as="geometry" />
        </mxCell>
        <mxCell id="6Ru11-lpTJLFxat0pvUQ-39" value="Initialization of responder with respond thread." style="rounded=1;whiteSpace=wrap;html=1;" vertex="1" parent="WIyWlLk6GJQsqaUBKTNV-1">
          <mxGeometry x="780" y="870" width="120" height="60" as="geometry" />
        </mxCell>
        <mxCell id="6Ru11-lpTJLFxat0pvUQ-53" value="" style="edgeStyle=orthogonalEdgeStyle;rounded=0;orthogonalLoop=1;jettySize=auto;html=1;" edge="1" parent="WIyWlLk6GJQsqaUBKTNV-1" source="6Ru11-lpTJLFxat0pvUQ-40" target="6Ru11-lpTJLFxat0pvUQ-41">
          <mxGeometry relative="1" as="geometry" />
        </mxCell>
        <mxCell id="6Ru11-lpTJLFxat0pvUQ-40" value="Configuration of the grid." style="rounded=1;whiteSpace=wrap;html=1;" vertex="1" parent="WIyWlLk6GJQsqaUBKTNV-1">
          <mxGeometry x="780" y="950" width="120" height="60" as="geometry" />
        </mxCell>
        <mxCell id="6Ru11-lpTJLFxat0pvUQ-54" value="" style="edgeStyle=orthogonalEdgeStyle;rounded=0;orthogonalLoop=1;jettySize=auto;html=1;" edge="1" parent="WIyWlLk6GJQsqaUBKTNV-1" source="6Ru11-lpTJLFxat0pvUQ-41" target="6Ru11-lpTJLFxat0pvUQ-42">
          <mxGeometry relative="1" as="geometry" />
        </mxCell>
        <mxCell id="6Ru11-lpTJLFxat0pvUQ-41" value="Addition of the &quot;Clear Transcript&quot; button." style="rounded=1;whiteSpace=wrap;html=1;" vertex="1" parent="WIyWlLk6GJQsqaUBKTNV-1">
          <mxGeometry x="780" y="1030" width="120" height="60" as="geometry" />
        </mxCell>
        <mxCell id="6Ru11-lpTJLFxat0pvUQ-42" value="initialization of freeze_state, pause_state, and corresponding functions freeze_unfreeze and pause_unpause." style="rounded=1;whiteSpace=wrap;html=1;" vertex="1" parent="WIyWlLk6GJQsqaUBKTNV-1">
          <mxGeometry x="755" y="1110" width="170" height="80" as="geometry" />
        </mxCell>
        <mxCell id="6Ru11-lpTJLFxat0pvUQ-43" value="call to update_transcript_UI and update_response_UI." style="rounded=1;whiteSpace=wrap;html=1;" vertex="1" parent="WIyWlLk6GJQsqaUBKTNV-1">
          <mxGeometry x="795" y="1420" width="120" height="60" as="geometry" />
        </mxCell>
        <mxCell id="6Ru11-lpTJLFxat0pvUQ-58" value="" style="edgeStyle=orthogonalEdgeStyle;rounded=0;orthogonalLoop=1;jettySize=auto;html=1;" edge="1" parent="WIyWlLk6GJQsqaUBKTNV-1" source="6Ru11-lpTJLFxat0pvUQ-55" target="6Ru11-lpTJLFxat0pvUQ-57">
          <mxGeometry relative="1" as="geometry" />
        </mxCell>
        <mxCell id="6Ru11-lpTJLFxat0pvUQ-60" value="" style="edgeStyle=orthogonalEdgeStyle;rounded=0;orthogonalLoop=1;jettySize=auto;html=1;" edge="1" parent="WIyWlLk6GJQsqaUBKTNV-1" source="6Ru11-lpTJLFxat0pvUQ-55" target="6Ru11-lpTJLFxat0pvUQ-59">
          <mxGeometry relative="1" as="geometry" />
        </mxCell>
        <mxCell id="6Ru11-lpTJLFxat0pvUQ-62" value="" style="edgeStyle=orthogonalEdgeStyle;rounded=0;orthogonalLoop=1;jettySize=auto;html=1;" edge="1" parent="WIyWlLk6GJQsqaUBKTNV-1" source="6Ru11-lpTJLFxat0pvUQ-55" target="6Ru11-lpTJLFxat0pvUQ-61">
          <mxGeometry relative="1" as="geometry" />
        </mxCell>
        <mxCell id="6Ru11-lpTJLFxat0pvUQ-55" value="methods" style="whiteSpace=wrap;html=1;rounded=1;" vertex="1" parent="WIyWlLk6GJQsqaUBKTNV-1">
          <mxGeometry x="414" y="500" width="120" height="60" as="geometry" />
        </mxCell>
        <mxCell id="6Ru11-lpTJLFxat0pvUQ-57" value="write_in_textbox: Method that deletes the current text in a textbox and inserts new text." style="whiteSpace=wrap;html=1;rounded=1;" vertex="1" parent="WIyWlLk6GJQsqaUBKTNV-1">
          <mxGeometry x="255" y="620" width="135" height="70" as="geometry" />
        </mxCell>
        <mxCell id="6Ru11-lpTJLFxat0pvUQ-59" value="update_response_UI: Method that updates the response UI if not frozen." style="whiteSpace=wrap;html=1;rounded=1;" vertex="1" parent="WIyWlLk6GJQsqaUBKTNV-1">
          <mxGeometry x="614" y="500" width="120" height="60" as="geometry" />
        </mxCell>
        <mxCell id="6Ru11-lpTJLFxat0pvUQ-61" value="update_transcript_UI: Method that updates the transcript UI if not paused." style="whiteSpace=wrap;html=1;rounded=1;" vertex="1" parent="WIyWlLk6GJQsqaUBKTNV-1">
          <mxGeometry x="490" y="670" width="120" height="60" as="geometry" />
        </mxCell>
        <mxCell id="6Ru11-lpTJLFxat0pvUQ-63" value="create_ui_components: Method that creates the UI components (transcript and response textboxes, freeze and pause buttons, update interval slider, etc.)." style="rounded=1;whiteSpace=wrap;html=1;" vertex="1" parent="WIyWlLk6GJQsqaUBKTNV-1">
          <mxGeometry x="280" y="760" width="200" height="80" as="geometry" />
        </mxCell>
        <mxCell id="6Ru11-lpTJLFxat0pvUQ-64" value="" style="endArrow=classic;html=1;rounded=0;exitX=0.05;exitY=1.027;exitDx=0;exitDy=0;exitPerimeter=0;entryX=0.87;entryY=0.033;entryDx=0;entryDy=0;entryPerimeter=0;" edge="1" parent="WIyWlLk6GJQsqaUBKTNV-1" source="6Ru11-lpTJLFxat0pvUQ-55" target="6Ru11-lpTJLFxat0pvUQ-63">
          <mxGeometry width="50" height="50" relative="1" as="geometry">
            <mxPoint x="490" y="590" as="sourcePoint" />
            <mxPoint x="540" y="540" as="targetPoint" />
          </mxGeometry>
        </mxCell>
      </root>
    </mxGraphModel>
  </diagram>
</mxfile>
